# xmcd
#
# Track frame offsets:
#	150
#	19645
#	37580
#	56274
#	80457
#	98357
#	113888
#	133564
#	148859
#	166466
#	184979
#	203241
#
# Disc length: 2908 seconds
#
# Revision: 1
# Processed by: cddbd v1.5.1PL2 Copyright (c) Steve Scherf et al.
# Submitted via: SynApp - FreeCDDB Version: 2.1
#
DISCID=940b5a0c
DTITLE=q - q
DYEAR=1999
DGENRE=A Cappella
TTITLE0=q - a
TTITLE1=q - a
TTITLE2=q - a
TTITLE3=a - a
TTITLE4=q - a
TTITLE5=q - a
TTITLE6=q - a
TTITLE7=q - a
TTITLE8=q - a
TTITLE9=q - a
TTITLE10=q - a
TTITLE11=q - a
EXTD=
EXTT0=
EXTT1=
EXTT2=
EXTT3=
EXTT4=
EXTT5=
EXTT6=
EXTT7=
EXTT8=
EXTT9=
EXTT10=
EXTT11=
PLAYORDER=
